<svg xmlns="http://www.w3.org/2000/svg" width="24" height="24" viewBox="0 0 24 24">
    <g fill="none" fill-rule="evenodd">
        <g>
            <g>
                <g>
                    <path fill="#30383D" d="M20.184 6.254l1.212-3.484c.257-.735.51-1.47.772-2.204.104-.293.181-.34.49-.342h.508c.103 0 .205-.003.308.002.146.008.204.077.181.22-.012.076-.035.15-.063.222-1.101 2.803-2.203 5.606-3.307 8.408-.155.393-.357.762-.636 1.083-.358.412-.817.608-1.353.64-.35.021-.698.005-1.038-.092-.218-.061-.299-.158-.307-.382-.005-.154-.006-.309 0-.463.006-.191.082-.264.272-.24.245.03.488.057.736.04.402-.029.715-.2.926-.55.257-.425.384-.904.568-1.359.026-.066-.008-.12-.03-.175L16.662.77c-.042-.104-.082-.21-.105-.32-.028-.14.037-.22.18-.223.334-.004.668-.002 1.002.001.203.002.295.14.356.309.164.453.33.905.493 1.358l1.523 4.22c.018.047.023.102.072.14" transform="translate(-864 -361) translate(864 361) translate(0 4)"/>
                    <path fill="#EC912D" d="M10.533 16.944c-3.09-.24-5.924-1.217-8.497-2.944-.67-.45-1.302-.952-1.905-1.488-.03-.027-.06-.057-.083-.09-.052-.078-.07-.162-.012-.245.061-.09.154-.103.247-.074.077.025.149.068.22.11 1.952 1.112 4.027 1.909 6.213 2.423 1.437.337 2.894.54 4.37.609 3.477.163 6.815-.454 10.03-1.771.09-.037.177-.08.278-.084.163-.005.311.075.369.204.06.133.029.288-.113.399-.202.157-.413.305-.629.444-1.543.994-3.23 1.644-5.01 2.067-1.04.247-2.095.405-3.164.464-.029.001-1.31.022-1.401.013-.05 0-.785-.027-.913-.037" transform="translate(-864 -361) translate(864 361) translate(0 4)"/>
                    <path fill="#EC912D" d="M21.447 12.552c-.586 0-1.167.075-1.75.134-.097.01-.222.05-.266-.082-.041-.124.056-.201.144-.263.392-.277.829-.451 1.292-.56.841-.197 1.686-.227 2.532-.026.015.003.03.005.045.01.362.106.448.213.452.591.004.413-.07.817-.181 1.214-.217.775-.55 1.49-1.104 2.088-.097.105-.204.202-.314.294-.077.065-.178.11-.268.042-.09-.068-.045-.169-.011-.255.235-.596.47-1.192.632-1.814.073-.278.138-.559.118-.85-.018-.255-.094-.35-.343-.429-.32-.102-.649-.093-.978-.094" transform="translate(-864 -361) translate(864 361) translate(0 4)"/>
                    <path fill="#30383D" d="M6.864 5.377c-.278.85-.9 1.246-1.809 1.239-.694-.005-1.299-.257-1.855-.653-.064-.046-.06-.099-.06-.16v-1.91c0-.641.002-1.283-.003-1.925 0-.094.03-.147.106-.198.582-.39 1.214-.612 1.922-.593.849.023 1.419.401 1.689 1.206.332.989.335 2.003.01 2.994zm1.388-3.411C7.913.993 7.258.318 6.227.084 5.393-.106 4.596.032 3.84.43c-.282.149-.538.333-.8.55-.03-.177-.053-.333-.084-.487C2.92.31 2.825.23 2.637.226 2.43.222 2.226.223 2.02.225c-.24.001-.327.084-.327.323v9.756c0 .246.087.33.336.333.242.003.484.001.725 0 .318 0 .386-.07.386-.391V6.95c.026.009.036.01.044.015.032.025.065.05.096.076.8.65 1.718.87 2.716.686 1.12-.206 1.839-.923 2.225-1.96.467-1.257.47-2.537.03-3.801zM14.1 6.07c-.536.367-1.116.604-1.77.648-.16.011-.318.001-.474-.032-.49-.105-.788-.457-.82-.962-.053-.816.352-1.298 1.173-1.396.65-.078 1.29.007 1.925.14.078.015.099.048.097.122-.004.215-.001.43-.001.646 0 .195-.009.39.003.585.007.12-.04.185-.134.25zm1.473-4.185C15.48.968 14.933.344 14.035.13c-.66-.156-1.325-.147-1.99-.075-.563.061-1.115.173-1.642.389-.272.111-.322.184-.324.472v.308c0 .317.084.375.384.284.841-.253 1.696-.401 2.58-.33.765.061 1.12.415 1.173 1.176.023.334.01.668.014 1.002.001.199 0 .196-.196.153-.796-.175-1.598-.282-2.413-.137-.581.103-1.098.338-1.5.783-.485.54-.606 1.184-.506 1.88.118.83.575 1.397 1.376 1.649.875.275 1.713.116 2.516-.292.274-.139.524-.316.779-.523.028.181.05.329.076.475.036.204.126.278.337.28.175.003.35.002.524.001.313 0 .377-.064.377-.38v-4.76c0-.2-.007-.4-.027-.6z" transform="translate(-864 -361) translate(864 361) translate(0 4)"/>
                </g>
            </g>
        </g>
    </g>
</svg>
