<svg xmlns="http://www.w3.org/2000/svg" width="24" height="24" viewBox="0 0 24 24">
    <g fill="none" fill-rule="evenodd">
        <g>
            <path fill="#233375" d="M.107 1.684c0-.165.111-.248.248-.248h2.414c.741.084 1.259.462 1.31 1.453v1.342c0 .2-.012.367-.07.56-.192.646-.653.967-1.343 1.012H1.63v1.642c0 .124-.103.185-.229.185H.314c-.133 0-.23-.074-.23-.222l.023-5.724zM1.64 2.958h.643c.144 0 .263.119.263.264v.775c0 .145-.119.264-.263.264h-.643V2.958zM5.268 1.444h1.688c.988.057 1.523.576 1.509 1.651v3.983c0 .31-.312.543-.579.543H5.674c-.671 0-1.114-.523-1.225-1.036-.106-.493-.027-1.089-.027-1.592 0-.776.514-1.546 1.372-1.546h.9c.262-.014.25-.587 0-.567H5.287c-.143 0-.243-.075-.256-.22V1.616c0-.133.11-.172.237-.172zM6.2 4.887h.515c.121 0 .221.1.221.221v.897c0 .123-.1.222-.221.222h-.515c-.122 0-.22-.1-.22-.222v-.897c0-.121.098-.22.22-.22zM8.983 1.724V4.24c.061.789.769 1.38 1.54 1.38h.712c.294 0 .277.495 0 .495H9.693c-.167 0-.228.087-.228.234v1.108c0 .111.09.195.209.195h1.428c1.19 0 1.87-.571 1.87-1.852V1.627c0-.137-.087-.19-.17-.19h-1.197c-.11 0-.175.12-.175.208v2.287c0 .099-.055.156-.143.156h-.567c-.13 0-.201-.07-.201-.195V1.685c0-.146-.059-.254-.22-.254H9.146c-.131 0-.164.13-.164.293" transform="translate(0 8)"/>
            <path fill="#00A3DA" d="M13.573 2.758V1.67c0-.117.096-.212.212-.212h.262c.675-.14.835-.536 1.248-.981.253-.275.476-.347.64-.056v1.037h.618c.117 0 .212.095.212.212v1.088c0 .117-.096.213-.212.213h-.619v4.457c0 .117-.095.213-.212.213h-1.088c-.117 0-.212-.096-.212-.213V2.971h-.637c-.116 0-.212-.096-.212-.213M21.28 7.357c0 .145-.12.264-.266.264h-1.019c-.147 0-.266-.119-.266-.264V3.266c.008-.442-.883-.511-.883 0v4.091c0 .145-.12.264-.266.264h-1.018c-.146 0-.266-.119-.266-.264V1.685c0-.146.12-.265.266-.265h1.018c.147 0 .266.119.266.265v.078c.596-.57 1.628-.48 2.178.112 1.033-1.186 2.804-.13 2.723 1.171 0 1.438-.013 2.862-.013 4.311 0 .145-.12.264-.266.264H22.45c-.146 0-.265-.119-.265-.264V3.293c-.059-.568-.916-.435-.915 0 0 1.35.01 2.701.01 4.064" transform="translate(0 8)"/>
        </g>
        <path fill-rule="nonzero" d="M0 0H24V24H0z"/>
    </g>
</svg>
